<svg xmlns="http://www.w3.org/2000/svg" xmlns:xlink="http://www.w3.org/1999/xlink" width="300" zoomAndPan="magnify" viewBox="0 0 224.87999 119.999999" height="160" preserveAspectRatio="xMidYMid meet" version="1.0"><defs><g/><clipPath id="aa16e213a5"><path d="M 54 5.3125 L 80 5.3125 L 80 78 L 54 78 Z M 54 5.3125 " clip-rule="nonzero"/></clipPath><clipPath id="89d143c2a5"><path d="M 79 42 L 105 42 L 105 114.554688 L 79 114.554688 Z M 79 42 " clip-rule="nonzero"/></clipPath><clipPath id="9fef6910c9"><path d="M 113 31 L 117.917969 31 L 117.917969 36 L 113 36 Z M 113 31 " clip-rule="nonzero"/></clipPath><clipPath id="427cdcc6f5"><path d="M 76 14 L 87.976562 14 L 87.976562 27 L 76 27 Z M 76 14 " clip-rule="nonzero"/></clipPath><clipPath id="05ed4f8ce5"><rect x="0" width="88" y="0" height="33"/></clipPath><clipPath id="038480c6bc"><path d="M 40 7 L 51.316406 7 L 51.316406 19 L 40 19 Z M 40 7 " clip-rule="nonzero"/></clipPath><clipPath id="af76a019db"><rect x="0" width="52" y="0" height="25"/></clipPath></defs><g clip-path="url(#aa16e213a5)"><path fill="#ffffff" d="M 54.007812 45.945312 L 54.007812 36.925781 C 55.835938 36.824219 57.214844 36.546875 58.140625 36.097656 C 59.066406 35.644531 59.871094 34.890625 60.546875 33.824219 C 61.222656 32.757812 61.6875 31.425781 61.9375 29.820312 C 62.136719 28.617188 62.238281 26.527344 62.238281 23.542969 C 62.238281 18.683594 62.464844 15.292969 62.914062 13.378906 C 63.367188 11.460938 64.179688 9.917969 65.355469 8.753906 C 66.535156 7.589844 68.25 6.667969 70.507812 5.992188 C 72.035156 5.542969 74.441406 5.316406 77.722656 5.316406 L 79.714844 5.316406 L 79.714844 14.300781 C 76.933594 14.300781 75.148438 14.457031 74.359375 14.769531 C 73.570312 15.082031 72.988281 15.558594 72.609375 16.195312 C 72.234375 16.835938 72.046875 17.929688 72.046875 19.484375 C 72.046875 21.0625 71.933594 24.058594 71.707031 28.46875 C 71.582031 30.949219 71.257812 32.960938 70.730469 34.5 C 70.207031 36.039062 69.535156 37.3125 68.722656 38.316406 C 67.90625 39.316406 66.660156 40.355469 64.980469 41.433594 C 66.460938 42.285156 67.667969 43.28125 68.609375 44.421875 C 69.546875 45.5625 70.269531 46.945312 70.769531 48.574219 C 71.269531 50.203125 71.597656 52.382812 71.746094 55.113281 C 71.921875 59.273438 72.007812 61.929688 72.007812 63.082031 C 72.007812 64.738281 72.210938 65.886719 72.609375 66.539062 C 73.011719 67.191406 73.621094 67.6875 74.433594 68.027344 C 75.246094 68.363281 77.007812 68.53125 79.714844 68.53125 L 79.714844 77.554688 L 77.722656 77.554688 C 74.339844 77.554688 71.746094 77.28125 69.941406 76.746094 C 68.136719 76.207031 66.617188 75.308594 65.375 74.058594 C 64.136719 72.804688 63.300781 71.257812 62.875 69.414062 C 62.449219 67.574219 62.238281 64.671875 62.238281 60.714844 C 62.238281 56.105469 62.035156 53.109375 61.636719 51.730469 C 61.085938 49.726562 60.253906 48.292969 59.136719 47.429688 C 58.023438 46.566406 56.3125 46.070312 54.007812 45.945312 " fill-opacity="1" fill-rule="nonzero"/></g><path fill="#fcdb00" d="M 106.742188 47.066406 L 100.859375 47.066406 L 100.859375 41.183594 L 106.742188 41.183594 L 106.742188 47.066406 " fill-opacity="1" fill-rule="nonzero"/><path fill="#fcdb00" d="M 105.351562 58.832031 L 100.859375 58.832031 L 100.859375 54.335938 L 105.351562 54.335938 L 105.351562 58.832031 " fill-opacity="1" fill-rule="nonzero"/><g clip-path="url(#89d143c2a5)"><path fill="#fcdb00" d="M 88.238281 51.5625 L 88.238281 47.066406 L 92.734375 47.066406 L 92.734375 51.5625 Z M 99.671875 72.574219 C 98.542969 71.710938 97.703125 70.273438 97.152344 68.269531 C 96.851562 67.140625 96.671875 64.972656 96.613281 61.773438 L 92.734375 61.773438 L 92.734375 55.890625 L 96.527344 55.890625 C 96.433594 53.621094 96.234375 51.855469 95.933594 50.585938 C 95.492188 48.746094 94.660156 47.191406 93.433594 45.925781 C 92.207031 44.660156 90.691406 43.765625 88.886719 43.238281 C 87.082031 42.710938 84.488281 42.449219 81.105469 42.449219 L 79.113281 42.449219 L 79.113281 51.433594 C 81.945312 51.433594 83.765625 51.601562 84.582031 51.941406 C 85.394531 52.277344 85.960938 52.761719 86.273438 53.386719 C 86.585938 54.015625 86.753906 55.265625 86.78125 57.144531 C 86.90625 63.109375 87.105469 66.96875 87.382812 68.722656 C 87.808594 71.277344 88.609375 73.382812 89.789062 75.035156 C 90.640625 76.1875 91.992188 77.367188 93.847656 78.570312 C 92.417969 79.394531 91.246094 80.355469 90.332031 81.445312 C 89.417969 82.535156 88.683594 83.863281 88.132812 85.429688 C 87.582031 86.992188 87.246094 89.078125 87.117188 91.683594 C 86.917969 95.996094 86.8125 98.914062 86.800781 100.441406 C 86.785156 101.972656 86.585938 103.054688 86.199219 103.695312 C 85.808594 104.332031 85.203125 104.820312 84.375 105.160156 C 83.546875 105.5 81.792969 105.667969 79.113281 105.667969 L 79.113281 114.6875 L 81.105469 114.6875 C 84.386719 114.6875 86.792969 114.460938 88.320312 114.011719 C 90.601562 113.332031 92.328125 112.414062 93.507812 111.25 C 94.6875 110.082031 95.492188 108.535156 95.933594 106.605469 C 96.371094 104.675781 96.589844 101.28125 96.589844 96.421875 C 96.589844 93.464844 96.691406 91.386719 96.890625 90.183594 C 97.167969 88.578125 97.636719 87.246094 98.300781 86.179688 C 98.964844 85.113281 99.757812 84.355469 100.6875 83.90625 C 101.613281 83.453125 102.992188 83.179688 104.820312 83.078125 L 104.820312 74.058594 C 102.515625 73.933594 100.800781 73.4375 99.671875 72.574219 " fill-opacity="1" fill-rule="nonzero"/></g><g clip-path="url(#9fef6910c9)"><path fill="#fcdb00" d="M 118.210938 35.640625 L 113.71875 35.640625 L 113.71875 31.144531 L 118.210938 31.144531 L 118.210938 35.640625 " fill-opacity="1" fill-rule="nonzero"/></g><path fill="#fcdb00" d="M 95.675781 41.183594 L 87.285156 41.183594 L 87.285156 32.792969 L 95.675781 32.792969 L 95.675781 41.183594 " fill-opacity="1" fill-rule="nonzero"/><g transform="matrix(1, 0, 0, 1, 108, 52)"><g clip-path="url(#05ed4f8ce5)"><g fill="#ffffff" fill-opacity="1"><g transform="translate(0.720309, 26.632948)"><g><path d="M 5.609375 0.203125 C 4.609375 0.203125 3.742188 0.0195312 3.015625 -0.34375 C 2.296875 -0.71875 1.742188 -1.207031 1.359375 -1.8125 C 0.984375 -2.414062 0.796875 -3.050781 0.796875 -3.71875 L 0.796875 -3.875 L 4.15625 -3.875 L 4.15625 -3.734375 C 4.15625 -3.390625 4.285156 -3.085938 4.546875 -2.828125 C 4.816406 -2.578125 5.195312 -2.453125 5.6875 -2.453125 C 6.101562 -2.453125 6.4375 -2.550781 6.6875 -2.75 C 6.945312 -2.945312 7.078125 -3.207031 7.078125 -3.53125 C 7.078125 -3.832031 6.957031 -4.070312 6.71875 -4.25 C 6.476562 -4.425781 6.179688 -4.546875 5.828125 -4.609375 L 4.5625 -4.875 C 3.695312 -5.019531 2.898438 -5.363281 2.171875 -5.90625 C 1.453125 -6.445312 1.09375 -7.28125 1.09375 -8.40625 C 1.09375 -9.539062 1.503906 -10.421875 2.328125 -11.046875 C 3.148438 -11.679688 4.203125 -12 5.484375 -12 C 6.453125 -12 7.285156 -11.828125 7.984375 -11.484375 C 8.679688 -11.148438 9.207031 -10.703125 9.5625 -10.140625 C 9.914062 -9.585938 10.09375 -9 10.09375 -8.375 L 10.09375 -8.265625 L 6.734375 -8.265625 L 6.734375 -8.34375 C 6.734375 -8.632812 6.617188 -8.90625 6.390625 -9.15625 C 6.171875 -9.40625 5.832031 -9.53125 5.375 -9.53125 C 4.988281 -9.53125 4.679688 -9.4375 4.453125 -9.25 C 4.222656 -9.070312 4.109375 -8.820312 4.109375 -8.5 C 4.109375 -7.914062 4.59375 -7.535156 5.5625 -7.359375 L 6.9375 -7.046875 C 7.875 -6.835938 8.660156 -6.457031 9.296875 -5.90625 C 9.941406 -5.363281 10.265625 -4.585938 10.265625 -3.578125 C 10.265625 -2.804688 10.0625 -2.132812 9.65625 -1.5625 C 9.25 -1 8.691406 -0.5625 7.984375 -0.25 C 7.273438 0.0507812 6.484375 0.203125 5.609375 0.203125 Z M 5.609375 0.203125 "/></g></g></g><g fill="#ffffff" fill-opacity="1"><g transform="translate(9.904528, 26.632948)"><g><path d="M 5.265625 0.203125 C 3.816406 0.203125 2.695312 -0.347656 1.90625 -1.453125 C 1.113281 -2.554688 0.71875 -4.035156 0.71875 -5.890625 C 0.71875 -7.753906 1.125 -9.238281 1.9375 -10.34375 C 2.75 -11.445312 3.875 -12 5.3125 -12 C 6.300781 -12 7.0625 -11.78125 7.59375 -11.34375 C 8.132812 -10.90625 8.507812 -10.46875 8.71875 -10.03125 L 8.890625 -10.03125 L 8.890625 -11.765625 L 12.390625 -11.765625 L 12.390625 0 L 8.890625 0 L 8.890625 -1.890625 L 8.71875 -1.890625 C 8.488281 -1.410156 8.101562 -0.941406 7.5625 -0.484375 C 7.03125 -0.0234375 6.265625 0.203125 5.265625 0.203125 Z M 6.578125 -2.578125 C 7.367188 -2.578125 7.957031 -2.90625 8.34375 -3.5625 C 8.726562 -4.226562 8.921875 -5.015625 8.921875 -5.921875 C 8.921875 -6.804688 8.726562 -7.578125 8.34375 -8.234375 C 7.957031 -8.898438 7.367188 -9.234375 6.578125 -9.234375 C 5.765625 -9.234375 5.164062 -8.910156 4.78125 -8.265625 C 4.40625 -7.617188 4.21875 -6.84375 4.21875 -5.9375 C 4.21875 -5.019531 4.40625 -4.226562 4.78125 -3.5625 C 5.164062 -2.90625 5.765625 -2.578125 6.578125 -2.578125 Z M 6.578125 -2.578125 "/></g></g></g><g fill="#ffffff" fill-opacity="1"><g transform="translate(22.001939, 26.632948)"><g><path d="M 5.9375 -9.078125 L 5.9375 -4.359375 C 5.9375 -3.835938 5.960938 -3.453125 6.015625 -3.203125 C 6.066406 -2.960938 6.210938 -2.769531 6.453125 -2.625 C 6.703125 -2.476562 7.101562 -2.40625 7.65625 -2.40625 C 7.9375 -2.40625 8.222656 -2.429688 8.515625 -2.484375 L 8.515625 -0.09375 C 8.367188 -0.0625 8.070312 -0.03125 7.625 0 C 7.175781 0.0390625 6.734375 0.0625 6.296875 0.0625 C 5.140625 0.0625 4.28125 -0.101562 3.71875 -0.4375 C 3.164062 -0.78125 2.820312 -1.195312 2.6875 -1.6875 C 2.550781 -2.175781 2.484375 -2.816406 2.484375 -3.609375 L 2.484375 -9.078125 L 0.59375 -9.078125 L 0.59375 -11.765625 L 2.484375 -11.765625 L 2.484375 -15.5625 L 5.9375 -15.5625 L 5.9375 -11.765625 L 8.515625 -11.765625 L 8.515625 -9.078125 Z M 5.9375 -9.078125 "/></g></g></g><g fill="#ffffff" fill-opacity="1"><g transform="translate(29.78516, 26.632948)"><g><path d="M 11.984375 0 L 8.5 0 L 8.5 -1.75 L 8.34375 -1.75 C 8.082031 -1.207031 7.675781 -0.742188 7.125 -0.359375 C 6.582031 0.0234375 5.921875 0.21875 5.140625 0.21875 C 3.609375 0.21875 2.5625 -0.269531 2 -1.25 C 1.4375 -2.226562 1.15625 -3.316406 1.15625 -4.515625 L 1.15625 -11.765625 L 4.609375 -11.765625 L 4.609375 -5.09375 C 4.609375 -4.351562 4.757812 -3.753906 5.0625 -3.296875 C 5.375 -2.847656 5.859375 -2.625 6.515625 -2.625 C 7.191406 -2.625 7.691406 -2.859375 8.015625 -3.328125 C 8.335938 -3.796875 8.5 -4.382812 8.5 -5.09375 L 8.5 -11.765625 L 11.984375 -11.765625 Z M 11.984375 0 "/></g></g></g><g fill="#ffffff" fill-opacity="1"><g transform="translate(41.081997, 26.632948)"><g><path d="M 5.265625 0.203125 C 3.816406 0.203125 2.695312 -0.347656 1.90625 -1.453125 C 1.113281 -2.554688 0.71875 -4.035156 0.71875 -5.890625 C 0.71875 -7.753906 1.125 -9.238281 1.9375 -10.34375 C 2.75 -11.445312 3.875 -12 5.3125 -12 C 6.300781 -12 7.0625 -11.78125 7.59375 -11.34375 C 8.132812 -10.90625 8.507812 -10.46875 8.71875 -10.03125 L 8.890625 -10.03125 L 8.890625 -11.765625 L 12.390625 -11.765625 L 12.390625 0 L 8.890625 0 L 8.890625 -1.890625 L 8.71875 -1.890625 C 8.488281 -1.410156 8.101562 -0.941406 7.5625 -0.484375 C 7.03125 -0.0234375 6.265625 0.203125 5.265625 0.203125 Z M 6.578125 -2.578125 C 7.367188 -2.578125 7.957031 -2.90625 8.34375 -3.5625 C 8.726562 -4.226562 8.921875 -5.015625 8.921875 -5.921875 C 8.921875 -6.804688 8.726562 -7.578125 8.34375 -8.234375 C 7.957031 -8.898438 7.367188 -9.234375 6.578125 -9.234375 C 5.765625 -9.234375 5.164062 -8.910156 4.78125 -8.265625 C 4.40625 -7.617188 4.21875 -6.84375 4.21875 -5.9375 C 4.21875 -5.019531 4.40625 -4.226562 4.78125 -3.5625 C 5.164062 -2.90625 5.765625 -2.578125 6.578125 -2.578125 Z M 6.578125 -2.578125 "/></g></g></g><g fill="#ffffff" fill-opacity="1"><g transform="translate(53.001501, 26.632948)"><g><path d="M 1.3125 -16.5 L 4.796875 -16.5 L 4.796875 -7.34375 L 4.90625 -7.34375 L 8.1875 -11.765625 L 12 -11.765625 L 8.078125 -6.34375 L 12.09375 0 L 8.25 0 L 4.9375 -5.625 L 4.796875 -5.625 L 4.796875 0 L 1.3125 0 Z M 1.3125 -16.5 "/></g></g></g><g fill="#ffffff" fill-opacity="1"><g transform="translate(64.031477, 26.632948)"><g><path d="M 11.984375 0 L 8.5 0 L 8.5 -1.75 L 8.34375 -1.75 C 8.082031 -1.207031 7.675781 -0.742188 7.125 -0.359375 C 6.582031 0.0234375 5.921875 0.21875 5.140625 0.21875 C 3.609375 0.21875 2.5625 -0.269531 2 -1.25 C 1.4375 -2.226562 1.15625 -3.316406 1.15625 -4.515625 L 1.15625 -11.765625 L 4.609375 -11.765625 L 4.609375 -5.09375 C 4.609375 -4.351562 4.757812 -3.753906 5.0625 -3.296875 C 5.375 -2.847656 5.859375 -2.625 6.515625 -2.625 C 7.191406 -2.625 7.691406 -2.859375 8.015625 -3.328125 C 8.335938 -3.796875 8.5 -4.382812 8.5 -5.09375 L 8.5 -11.765625 L 11.984375 -11.765625 Z M 11.984375 0 "/></g></g></g><g clip-path="url(#427cdcc6f5)"><g fill="#ffffff" fill-opacity="1"><g transform="translate(75.506222, 26.632948)"><g><path d="M 1.15625 -11.765625 L 4.625 -11.765625 L 4.625 -10.046875 L 4.796875 -10.046875 C 5.054688 -10.597656 5.46875 -11.0625 6.03125 -11.4375 C 6.601562 -11.8125 7.296875 -12 8.109375 -12 C 9.648438 -12 10.71875 -11.515625 11.3125 -10.546875 C 11.90625 -9.578125 12.203125 -8.492188 12.203125 -7.296875 L 12.203125 0 L 8.734375 0 L 8.734375 -6.6875 C 8.734375 -7.457031 8.5625 -8.066406 8.21875 -8.515625 C 7.882812 -8.960938 7.382812 -9.1875 6.71875 -9.1875 C 6 -9.1875 5.46875 -8.953125 5.125 -8.484375 C 4.789062 -8.015625 4.625 -7.414062 4.625 -6.6875 L 4.625 0 L 1.15625 0 Z M 1.15625 -11.765625 "/></g></g></g></g></g></g><g transform="matrix(1, 0, 0, 1, 107, 43)"><g clip-path="url(#af76a019db)"><g fill="#ffffff" fill-opacity="1"><g transform="translate(0.631813, 18.095877)"><g><path d="M 5.453125 -10.921875 C 5.867188 -10.921875 6.332031 -10.84375 6.84375 -10.6875 C 7.21875 -10.570312 7.523438 -10.515625 7.765625 -10.515625 C 8.097656 -10.515625 8.320312 -10.648438 8.4375 -10.921875 L 8.921875 -10.921875 L 8.3125 -7.25 L 7.796875 -7.25 C 7.710938 -8.21875 7.472656 -8.984375 7.078125 -9.546875 C 6.679688 -10.117188 6.210938 -10.40625 5.671875 -10.40625 C 5.378906 -10.40625 5.140625 -10.304688 4.953125 -10.109375 C 4.773438 -9.921875 4.6875 -9.675781 4.6875 -9.375 C 4.6875 -8.976562 4.789062 -8.59375 5 -8.21875 C 5.21875 -7.851562 5.5625 -7.378906 6.03125 -6.796875 C 6.550781 -6.148438 6.953125 -5.570312 7.234375 -5.0625 C 7.523438 -4.550781 7.671875 -4.003906 7.671875 -3.421875 C 7.671875 -2.796875 7.507812 -2.207031 7.1875 -1.65625 C 6.875 -1.113281 6.4375 -0.675781 5.875 -0.34375 C 5.320312 -0.0195312 4.703125 0.140625 4.015625 0.140625 C 3.765625 0.140625 3.507812 0.109375 3.25 0.046875 C 3 -0.00390625 2.757812 -0.0625 2.53125 -0.125 C 2.082031 -0.25 1.773438 -0.3125 1.609375 -0.3125 C 1.222656 -0.3125 0.96875 -0.160156 0.84375 0.140625 L 0.40625 0.140625 L 0.984375 -3.640625 L 1.4375 -3.640625 C 1.582031 -2.953125 1.796875 -2.359375 2.078125 -1.859375 C 2.367188 -1.367188 2.679688 -0.992188 3.015625 -0.734375 C 3.359375 -0.484375 3.675781 -0.359375 3.96875 -0.359375 C 4.300781 -0.359375 4.59375 -0.492188 4.84375 -0.765625 C 5.101562 -1.046875 5.234375 -1.390625 5.234375 -1.796875 C 5.234375 -2.253906 5.109375 -2.707031 4.859375 -3.15625 C 4.617188 -3.601562 4.242188 -4.171875 3.734375 -4.859375 C 3.203125 -5.535156 2.804688 -6.117188 2.546875 -6.609375 C 2.285156 -7.109375 2.15625 -7.625 2.15625 -8.15625 C 2.15625 -8.664062 2.300781 -9.128906 2.59375 -9.546875 C 2.882812 -9.972656 3.28125 -10.304688 3.78125 -10.546875 C 4.289062 -10.796875 4.847656 -10.921875 5.453125 -10.921875 Z M 5.453125 -10.921875 "/></g></g></g><g fill="#ffffff" fill-opacity="1"><g transform="translate(8.159706, 18.095877)"><g><path d="M 6.796875 -13.671875 L 7.265625 -13.671875 L 6.546875 -10.65625 L 8.203125 -10.65625 L 7.71875 -9.15625 L 6.09375 -9.15625 L 4.46875 -3.0625 C 4.457031 -3.03125 4.398438 -2.8125 4.296875 -2.40625 C 4.191406 -2 4.140625 -1.691406 4.140625 -1.484375 C 4.140625 -1.359375 4.171875 -1.242188 4.234375 -1.140625 C 4.304688 -1.046875 4.398438 -1 4.515625 -1 C 4.742188 -1 4.992188 -1.140625 5.265625 -1.421875 C 5.546875 -1.710938 5.832031 -2.109375 6.125 -2.609375 L 6.5 -2.359375 C 5.976562 -1.472656 5.382812 -0.8125 4.71875 -0.375 C 4.0625 0.0585938 3.378906 0.28125 2.671875 0.28125 C 2.210938 0.28125 1.84375 0.148438 1.5625 -0.109375 C 1.28125 -0.367188 1.140625 -0.707031 1.140625 -1.125 C 1.140625 -1.332031 1.171875 -1.585938 1.234375 -1.890625 C 1.304688 -2.191406 1.375 -2.46875 1.4375 -2.71875 C 1.5 -2.976562 1.546875 -3.164062 1.578125 -3.28125 L 3.109375 -9.15625 L 1.390625 -9.15625 L 1.71875 -10.234375 C 2.625 -10.453125 3.472656 -10.851562 4.265625 -11.4375 C 5.054688 -12.019531 5.898438 -12.765625 6.796875 -13.671875 Z M 6.796875 -13.671875 "/></g></g></g><g fill="#ffffff" fill-opacity="1"><g transform="translate(14.444852, 18.095877)"><g><path d="M 6.3125 -10.921875 L 3.921875 -3.03125 C 3.898438 -2.988281 3.863281 -2.878906 3.8125 -2.703125 C 3.769531 -2.523438 3.75 -2.375 3.75 -2.25 C 3.75 -1.957031 3.863281 -1.8125 4.09375 -1.8125 C 4.46875 -1.8125 4.90625 -2.101562 5.40625 -2.6875 C 5.914062 -3.269531 6.394531 -4.003906 6.84375 -4.890625 C 7.300781 -5.773438 7.65625 -6.640625 7.90625 -7.484375 L 8.890625 -10.65625 L 11.875 -10.65625 L 9.328125 -2.296875 C 9.234375 -1.972656 9.1875 -1.722656 9.1875 -1.546875 C 9.1875 -1.296875 9.265625 -1.171875 9.421875 -1.171875 C 9.578125 -1.171875 9.785156 -1.328125 10.046875 -1.640625 C 10.316406 -1.953125 10.585938 -2.363281 10.859375 -2.875 L 11.234375 -2.609375 C 10.847656 -1.710938 10.34375 -1.003906 9.71875 -0.484375 C 9.101562 0.0234375 8.4375 0.28125 7.71875 0.28125 C 7.257812 0.28125 6.878906 0.164062 6.578125 -0.0625 C 6.273438 -0.289062 6.125 -0.601562 6.125 -1 C 6.125 -1.226562 6.171875 -1.523438 6.265625 -1.890625 C 6.359375 -2.253906 6.460938 -2.632812 6.578125 -3.03125 C 6.734375 -3.507812 6.835938 -3.851562 6.890625 -4.0625 L 6.84375 -4.109375 C 6.125 -2.835938 5.375 -1.785156 4.59375 -0.953125 C 3.8125 -0.128906 3.03125 0.28125 2.25 0.28125 C 1.800781 0.28125 1.421875 0.128906 1.109375 -0.171875 C 0.796875 -0.472656 0.640625 -0.894531 0.640625 -1.4375 C 0.640625 -1.707031 0.660156 -1.96875 0.703125 -2.21875 C 0.753906 -2.476562 0.882812 -2.929688 1.09375 -3.578125 L 2.34375 -7.75 C 2.519531 -8.320312 2.609375 -8.71875 2.609375 -8.9375 C 2.609375 -9.5 2.207031 -9.78125 1.40625 -9.78125 L 1.546875 -10.25 L 5.875 -10.921875 Z M 6.3125 -10.921875 "/></g></g></g><g fill="#ffffff" fill-opacity="1"><g transform="translate(24.721125, 18.095877)"><g><path d="M 13.625 -16.78125 L 9.484375 -3.234375 C 9.316406 -2.703125 9.234375 -2.273438 9.234375 -1.953125 C 9.234375 -1.765625 9.269531 -1.617188 9.34375 -1.515625 C 9.425781 -1.410156 9.539062 -1.359375 9.6875 -1.359375 C 9.957031 -1.359375 10.207031 -1.472656 10.4375 -1.703125 C 10.664062 -1.941406 10.925781 -2.316406 11.21875 -2.828125 L 11.578125 -2.609375 C 10.691406 -0.679688 9.4375 0.28125 7.8125 0.28125 C 7.269531 0.28125 6.851562 0.144531 6.5625 -0.125 C 6.269531 -0.40625 6.125 -0.800781 6.125 -1.3125 C 6.125 -1.851562 6.296875 -2.632812 6.640625 -3.65625 L 6.59375 -3.703125 C 5.894531 -2.253906 5.238281 -1.226562 4.625 -0.625 C 4.007812 -0.0195312 3.382812 0.28125 2.75 0.28125 C 2.113281 0.28125 1.601562 0.0234375 1.21875 -0.484375 C 0.832031 -0.992188 0.640625 -1.6875 0.640625 -2.5625 C 0.640625 -3.820312 0.953125 -5.101562 1.578125 -6.40625 C 2.210938 -7.707031 3.019531 -8.785156 4 -9.640625 C 4.976562 -10.492188 5.945312 -10.921875 6.90625 -10.921875 C 7.300781 -10.921875 7.625 -10.851562 7.875 -10.71875 C 8.132812 -10.582031 8.367188 -10.359375 8.578125 -10.046875 L 9.703125 -13.703125 C 9.734375 -13.804688 9.769531 -13.957031 9.8125 -14.15625 C 9.851562 -14.363281 9.875 -14.519531 9.875 -14.625 C 9.875 -14.882812 9.773438 -15.101562 9.578125 -15.28125 C 9.378906 -15.46875 9.113281 -15.585938 8.78125 -15.640625 L 8.921875 -16.09375 L 13.203125 -16.78125 Z M 3.640625 -2.9375 C 3.640625 -2.570312 3.707031 -2.296875 3.84375 -2.109375 C 3.976562 -1.929688 4.15625 -1.84375 4.375 -1.84375 C 4.863281 -1.84375 5.398438 -2.316406 5.984375 -3.265625 C 6.566406 -4.210938 7.066406 -5.289062 7.484375 -6.5 C 7.910156 -7.707031 8.125 -8.609375 8.125 -9.203125 C 8.125 -9.566406 8.035156 -9.863281 7.859375 -10.09375 C 7.691406 -10.332031 7.460938 -10.453125 7.171875 -10.453125 C 6.648438 -10.453125 6.113281 -9.992188 5.5625 -9.078125 C 5.007812 -8.160156 4.550781 -7.09375 4.1875 -5.875 C 3.820312 -4.65625 3.640625 -3.675781 3.640625 -2.9375 Z M 3.640625 -2.9375 "/></g></g></g><g fill="#ffffff" fill-opacity="1"><g transform="translate(34.997398, 18.095877)"><g><path d="M 5.546875 -16.78125 C 6.035156 -16.78125 6.445312 -16.613281 6.78125 -16.28125 C 7.125 -15.945312 7.296875 -15.53125 7.296875 -15.03125 C 7.296875 -14.539062 7.125 -14.125 6.78125 -13.78125 C 6.445312 -13.4375 6.035156 -13.265625 5.546875 -13.265625 C 5.054688 -13.265625 4.640625 -13.4375 4.296875 -13.78125 C 3.953125 -14.125 3.78125 -14.539062 3.78125 -15.03125 C 3.78125 -15.53125 3.953125 -15.945312 4.296875 -16.28125 C 4.640625 -16.613281 5.054688 -16.78125 5.546875 -16.78125 Z M 3.578125 -2.390625 C 3.472656 -2.003906 3.421875 -1.765625 3.421875 -1.671875 C 3.421875 -1.398438 3.523438 -1.265625 3.734375 -1.265625 C 3.953125 -1.265625 4.1875 -1.390625 4.4375 -1.640625 C 4.6875 -1.898438 5.046875 -2.363281 5.515625 -3.03125 L 5.859375 -2.71875 C 5.140625 -1.625 4.503906 -0.847656 3.953125 -0.390625 C 3.398438 0.0546875 2.785156 0.28125 2.109375 0.28125 C 1.578125 0.28125 1.148438 0.144531 0.828125 -0.125 C 0.515625 -0.394531 0.359375 -0.75 0.359375 -1.1875 C 0.359375 -1.53125 0.4375 -1.960938 0.59375 -2.484375 L 2.25 -7.765625 C 2.425781 -8.390625 2.515625 -8.773438 2.515625 -8.921875 C 2.515625 -9.203125 2.394531 -9.410156 2.15625 -9.546875 C 1.925781 -9.679688 1.628906 -9.75 1.265625 -9.75 L 1.140625 -9.75 L 1.296875 -10.234375 L 5.734375 -10.921875 L 6.1875 -10.921875 Z M 3.578125 -2.390625 "/></g></g></g><g clip-path="url(#038480c6bc)"><g fill="#ffffff" fill-opacity="1"><g transform="translate(39.800809, 18.095877)"><g><path d="M 7.890625 -10.921875 C 8.953125 -10.921875 9.789062 -10.609375 10.40625 -9.984375 C 11.019531 -9.367188 11.328125 -8.523438 11.328125 -7.453125 C 11.328125 -6.335938 11 -5.175781 10.34375 -3.96875 C 9.695312 -2.757812 8.8125 -1.75 7.6875 -0.9375 C 6.5625 -0.125 5.332031 0.28125 4 0.28125 C 3.082031 0.28125 2.289062 -0.00390625 1.625 -0.578125 C 0.957031 -1.160156 0.625 -2.019531 0.625 -3.15625 C 0.625 -4.445312 0.976562 -5.691406 1.6875 -6.890625 C 2.394531 -8.097656 3.3125 -9.070312 4.4375 -9.8125 C 5.570312 -10.550781 6.722656 -10.921875 7.890625 -10.921875 Z M 3.4375 -1.953125 C 3.4375 -1.484375 3.539062 -1.097656 3.75 -0.796875 C 3.957031 -0.503906 4.222656 -0.359375 4.546875 -0.359375 C 5.222656 -0.359375 5.863281 -0.878906 6.46875 -1.921875 C 7.082031 -2.960938 7.578125 -4.160156 7.953125 -5.515625 C 8.328125 -6.867188 8.515625 -7.890625 8.515625 -8.578125 C 8.515625 -9.710938 8.140625 -10.28125 7.390625 -10.28125 C 6.765625 -10.28125 6.144531 -9.773438 5.53125 -8.765625 C 4.914062 -7.765625 4.410156 -6.59375 4.015625 -5.25 C 3.628906 -3.90625 3.4375 -2.804688 3.4375 -1.953125 Z M 3.4375 -1.953125 "/></g></g></g></g></g></g></svg>